<?xml version="1.0" encoding="utf-8"?>
<!-- Generator: Adobe Illustrator 18.1.1, SVG Export Plug-In . SVG Version: 6.00 Build 0)  -->
<!DOCTYPE svg PUBLIC "-//W3C//DTD SVG 1.1//EN" "http://www.w3.org/Graphics/SVG/1.1/DTD/svg11.dtd">
<svg version="1.1" id="Layer_1" xmlns="http://www.w3.org/2000/svg" xmlns:xlink="http://www.w3.org/1999/xlink" x="0px" y="0px"
	 viewBox="0 0 244.8 30" enable-background="new 0 0 244.8 30" xml:space="preserve">
<path d="M27.5,23h-4.8V0h4.8V23z"/>
<path d="M45.4,7c1.1,0.9,1.7,2.5,1.7,4.6V23h-4.6V12.7c0-0.9-0.1-1.6-0.4-2.1c-0.4-0.9-1.3-1.3-2.5-1.3c-1.5,0-2.5,0.6-3.1,1.9
	c-0.3,0.7-0.4,1.5-0.4,2.6V23h-4.5V6H36v2.5c0.6-0.9,1.1-1.5,1.6-1.9c0.9-0.7,2.1-1,3.5-1C42.9,5.6,44.3,6.1,45.4,7z"/>
<path d="M61.7,6h4.8l-6.2,17h-4.7L49.5,6h5l3.5,12.6L61.7,6z"/>
<path d="M80.1,6.3c1.2,0.5,2.2,1.4,2.9,2.5c0.7,1,1.2,2.2,1.4,3.5c0.1,0.8,0.2,1.9,0.1,3.4H72.2c0.1,1.7,0.7,2.9,1.8,3.6
	c0.7,0.4,1.5,0.6,2.5,0.6c1,0,1.8-0.3,2.5-0.8c0.3-0.3,0.7-0.7,0.9-1.2h4.5c-0.1,1-0.7,2-1.7,3.1c-1.5,1.7-3.7,2.5-6.4,2.5
	c-2.3,0-4.3-0.7-6-2.1c-1.7-1.4-2.6-3.7-2.6-6.8c0-3,0.8-5.2,2.3-6.8c1.6-1.6,3.6-2.4,6.1-2.4C77.6,5.5,78.9,5.8,80.1,6.3z
	 M73.5,10.2c-0.6,0.6-1,1.5-1.2,2.6h7.7c-0.1-1.2-0.5-2.1-1.2-2.7c-0.7-0.6-1.6-0.9-2.6-0.9C75,9.2,74.1,9.5,73.5,10.2z"/>
<path d="M100.6,7c1.1,0.9,1.7,2.5,1.7,4.6V23h-4.6V12.7c0-0.9-0.1-1.6-0.4-2.1c-0.4-0.9-1.3-1.3-2.5-1.3c-1.5,0-2.5,0.6-3.1,1.9
	c-0.3,0.7-0.4,1.5-0.4,2.6V23h-4.5V6h4.3v2.5c0.6-0.9,1.1-1.5,1.6-1.9c0.9-0.7,2.1-1,3.5-1C98,5.6,99.4,6.1,100.6,7z"/>
<path d="M104.6,9.3V6.2h2.4V1.4h4.4v4.8h2.8v3.2h-2.8v9c0,0.7,0.1,1.1,0.3,1.3c0.2,0.2,0.7,0.3,1.6,0.3c0.1,0,0.3,0,0.4,0
	c0.2,0,0.3,0,0.4,0v3.3l-2.1,0.1c-2.1,0.1-3.5-0.3-4.3-1.1c-0.5-0.5-0.8-1.3-0.8-2.4V9.3H104.6z"/>
<path d="M131.2,20.9c-1.4,1.8-3.6,2.7-6.5,2.7c-2.9,0-5.1-0.9-6.5-2.7S116,17,116,14.5c0-2.5,0.7-4.6,2.2-6.4
	c1.4-1.8,3.6-2.7,6.5-2.7c2.9,0,5.1,0.9,6.5,2.7c1.4,1.8,2.2,3.9,2.2,6.4C133.4,17,132.7,19.2,131.2,20.9z M127.7,18.5
	c0.7-0.9,1-2.2,1-3.9s-0.3-3-1-3.9c-0.7-0.9-1.7-1.4-3-1.4c-1.3,0-2.3,0.5-3,1.4s-1.1,2.2-1.1,3.9s0.4,3,1.1,3.9s1.7,1.4,3,1.4
	C126,19.9,127,19.4,127.7,18.5z"/>
<path d="M146,5.6c0.1,0,0.2,0,0.4,0v4.6c-0.3,0-0.5-0.1-0.8-0.1c-0.2,0-0.4,0-0.5,0c-1.8,0-3,0.6-3.6,1.8c-0.3,0.7-0.5,1.7-0.5,3V23
	h-4.5V6h4.2v3c0.7-1.1,1.3-1.9,1.8-2.3c0.8-0.7,1.9-1,3.2-1C145.9,5.6,146,5.6,146,5.6z"/>
<path d="M149.7,26.3l0.6,0c0.4,0,0.9,0,1.2,0c0.4-0.1,0.7-0.2,1-0.4c0.3-0.2,0.5-0.5,0.7-1.1c0.2-0.6,0.3-0.9,0.3-1L147.3,6h5
	l3.7,12.6L159.5,6h4.7l-5.8,16.8c-1.1,3.2-2,5.2-2.7,6c-0.7,0.8-2,1.2-3.9,1.2c-0.4,0-0.7,0-1,0c-0.2,0-0.6,0-1.1-0.1V26.3z"/>
<path d="M192.8,0v4.1h-6.9v19h-4.8v-19h-6.9V0H192.8z"/>
<path d="M199.6,12.7c0.8-0.1,1.4-0.2,1.8-0.4c0.6-0.3,1-0.7,1-1.3c0-0.7-0.2-1.2-0.7-1.4c-0.5-0.3-1.2-0.4-2.2-0.4
	c-1.1,0-1.8,0.3-2.3,0.8c-0.3,0.4-0.5,0.9-0.6,1.6h-4.3c0.1-1.5,0.5-2.7,1.3-3.7c1.2-1.5,3.2-2.2,6.1-2.2c1.9,0,3.5,0.4,5,1.1
	c1.5,0.7,2.2,2.1,2.2,4.2v7.8c0,0.5,0,1.2,0,2c0,0.6,0.1,1,0.3,1.2c0.1,0.2,0.4,0.4,0.7,0.5V23h-4.8c-0.1-0.3-0.2-0.7-0.3-1
	c-0.1-0.3-0.1-0.6-0.1-1c-0.6,0.7-1.3,1.2-2.1,1.7c-1,0.6-2.1,0.8-3.3,0.8c-1.6,0-2.8-0.4-3.8-1.3c-1-0.9-1.5-2.1-1.5-3.7
	c0-2.1,0.8-3.6,2.4-4.5c0.9-0.5,2.2-0.9,3.9-1.1L199.6,12.7z M202.4,14.8c-0.3,0.2-0.6,0.3-0.9,0.4c-0.3,0.1-0.7,0.2-1.2,0.3l-1,0.2
	c-1,0.2-1.6,0.4-2,0.6c-0.7,0.4-1.1,1-1.1,1.9c0,0.8,0.2,1.3,0.6,1.6c0.4,0.3,0.9,0.5,1.6,0.5c1,0,1.9-0.3,2.7-0.8s1.2-1.6,1.3-3.1
	V14.8z"/>
<path d="M219.1,6c1.1,0.4,2,1.3,2.6,2.5V6h4.3v16.2c0,2.2-0.4,3.9-1.1,5c-1.3,1.9-3.7,2.9-7.3,2.9c-2.2,0-4-0.4-5.3-1.3
	c-1.4-0.9-2.1-2.1-2.3-3.8h4.8c0.1,0.5,0.3,0.9,0.6,1.1c0.5,0.4,1.3,0.6,2.4,0.6c1.6,0,2.7-0.5,3.2-1.6c0.4-0.7,0.5-1.8,0.5-3.5
	v-1.1c-0.4,0.7-0.9,1.3-1.4,1.6c-0.9,0.7-2,1-3.5,1c-2.2,0-3.9-0.8-5.2-2.3c-1.3-1.5-2-3.6-2-6.2c0-2.5,0.6-4.7,1.9-6.4
	c1.3-1.7,3-2.6,5.4-2.6C217.7,5.6,218.5,5.7,219.1,6z M220.6,18.2c0.7-0.8,1.1-2,1.1-3.8c0-1.6-0.3-2.8-1-3.7s-1.6-1.3-2.7-1.3
	c-1.6,0-2.6,0.7-3.2,2.2c-0.3,0.8-0.5,1.7-0.5,2.9c0,1,0.2,1.9,0.5,2.6c0.6,1.4,1.7,2.2,3.2,2.2C219,19.4,219.9,19,220.6,18.2z"/>
<path d="M233.7,17.6c0.1,0.8,0.3,1.4,0.6,1.7c0.6,0.6,1.6,0.9,3.1,0.9c0.9,0,1.6-0.1,2.1-0.4c0.5-0.3,0.8-0.7,0.8-1.2
	c0-0.5-0.2-0.9-0.6-1.1c-0.4-0.3-2-0.7-4.7-1.3c-1.9-0.5-3.3-1.1-4.1-1.8c-0.8-0.7-1.2-1.7-1.2-3.1c0-1.6,0.6-2.9,1.9-4.1
	c1.2-1.1,3-1.7,5.2-1.7c2.1,0,3.9,0.4,5.2,1.3c1.3,0.8,2.1,2.3,2.3,4.4h-4.5c-0.1-0.6-0.2-1-0.5-1.4c-0.5-0.6-1.3-0.9-2.5-0.9
	c-1,0-1.7,0.2-2.1,0.5c-0.4,0.3-0.6,0.7-0.6,1.1c0,0.5,0.2,0.9,0.7,1.1c0.4,0.2,2,0.7,4.6,1.2c1.8,0.4,3.1,1,4,1.9
	c0.9,0.9,1.3,1.9,1.3,3.2c0,1.7-0.6,3.1-1.9,4.1s-3.2,1.6-5.8,1.6c-2.7,0-4.7-0.6-5.9-1.7c-1.3-1.1-1.9-2.6-1.9-4.3H233.7z"/>
<g class="logo-bar-group">
<rect class="logo-bar lb1" x="9.5" width="4" height="23"/>
<rect class="logo-bar lb2" x="19" width="2" height="23"/>
<rect class="logo-bar lb3" x="15.2" width="2" height="23"/>
<rect class="logo-bar lb4" x="0" width="4" height="23"/>
<rect class="logo-bar lb5" x="5.7" width="2" height="23"/>
</g>
</svg>
